# Made in Blockbench 4.12.4
mtllib ember.mtl

o beveled_cuboid
v 0.140625 0.4375 0.140625
v 0.140625 0.4375 -0.140625
v -0.140625 0.4375 0.140625
v -0.140625 0.4375 -0.140625
v 0.140625 0.0625 0.140625
v 0.140625 0.0625 -0.140625
v -0.140625 0.0625 0.140625
v -0.140625 0.0625 -0.140625
v -0.1875 0.15625 0.140625
v -0.1875 0.34375 0.140625
v -0.1875 0.15625 -0.140625
v -0.1875 0.34375 -0.140625
v 0.1875 0.15625 0.140625
v 0.1875 0.34375 0.140625
v 0.1875 0.15625 -0.140625
v 0.1875 0.34375 -0.140625
v 0.140625 0.15625 -0.1875
v 0.140625 0.34375 -0.1875
v -0.140625 0.15625 -0.1875
v -0.140625 0.34375 -0.1875
v 0.140625 0.15625 0.1875
v 0.140625 0.34375 0.1875
v -0.140625 0.15625 0.1875
v -0.140625 0.34375 0.1875
vt 0.1484375 0.947590625
vt 0.0078125 0.947590625
vt 0.0078125 0.853840625
vt 0.1484375 0.853840625
vt 0.3359375 0.853840625
vt 0.3359375 0.947590625
vt 0.1953125 0.947590625
vt 0.1953125 0.853840625
vt 0.53125 0.84375
vt 0.53125 1
vt 0.375 1
vt 0.375 0.84375
vt 0.375 0.65625
vt 0.53125 0.65625
vt 0.53125 0.8125
vt 0.375 0.8125
vt 0.1484375 0.603840625
vt 0.1484375 0.697590625
vt 0.0078125 0.697590625
vt 0.0078125 0.603840625
vt 0.3359375 0.697590625
vt 0.1953125 0.697590625
vt 0.1953125 0.603840625
vt 0.3359375 0.603840625
vt 0.1484375 1
vt 0.0078125 1
vt 0.0078125 0.947590625
vt 0.1484375 0.947590625
vt 0.3359375 0.947590625
vt 0.3359375 1
vt 0.1953125 1
vt 0.1953125 0.947590625
vt 0.1484375 0.697590625
vt 0.1484375 0.75
vt 0.0078125 0.75
vt 0.0078125 0.697590625
vt 0.3359375 0.75
vt 0.1953125 0.75
vt 0.1953125 0.697590625
vt 0.3359375 0.697590625
vt 0.0078125 0.853840625
vt 0.0078125 0.8014343749999999
vt 0.1484375 0.8014343749999999
vt 0.1484375 0.853840625
vt 0.1953125 0.8014343749999999
vt 0.3359375 0.8014343749999999
vt 0.3359375 0.853840625
vt 0.1953125 0.853840625
vt 0.0078125 0.5514343749999999
vt 0.1484375 0.5514343749999999
vt 0.1484375 0.603840625
vt 0.0078125 0.603840625
vt 0.1953125 0.603840625
vt 0.1953125 0.5514343749999999
vt 0.3359375 0.5514343749999999
vt 0.3359375 0.603840625
vt 0.375 0.48153124999999997
vt 0.40814375 0.48153124999999997
vt 0.40814375 0.57528125
vt 0.375 0.57528125
vt 0.49810625 0.57528125
vt 0.49810625 0.48153124999999997
vt 0.53125 0.48153124999999997
vt 0.53125 0.57528125
vt 0.02935625 0.45028124999999997
vt 0.02935625 0.35653124999999997
vt 0.0625 0.35653124999999997
vt 0.0625 0.45028124999999997
vt 0.09375 0.35653124999999997
vt 0.12689375 0.35653124999999997
vt 0.12689375 0.45028124999999997
vt 0.09375 0.45028124999999997
vt 0.514678125 0.43181250000000004
vt 0.53125 0.48153124999999997
vt 0.49810625 0.48153124999999997
vt 0.110321875 0.30681250000000004
vt 0.12689375 0.35653124999999997
vt 0.09375 0.35653124999999997
vt 0.391571875 0.43181250000000004
vt 0.40814375 0.48153124999999997
vt 0.375 0.48153124999999997
vt 0.045928125 0.30681250000000004
vt 0.0625 0.35653124999999997
vt 0.02935625 0.35653124999999997
vt 0.514678125 0.625
vt 0.49810625 0.57528125
vt 0.53125 0.57528125
vt 0.110321875 0.5
vt 0.09375 0.45028124999999997
vt 0.12689375 0.45028124999999997
vt 0.391571875 0.625
vt 0.375 0.57528125
vt 0.40814375 0.57528125
vt 0.045928125 0.5
vt 0.02935625 0.45028124999999997
vt 0.0625 0.45028124999999997
vn 1 0 0
vn -1 0 0
vn 0 1 0
vn 0 -1 0
vn 0 0 1
vn 0 0 -1
vn 0.8944271909999161 0.44721359549995804 0
vn -0.8944271909999161 0.44721359549995804 0
vn 0 0.44721359549995804 0.8944271909999161
vn 0 0.44721359549995804 -0.8944271909999161
vn 0.8944271909999161 -0.44721359549995804 0
vn -0.8944271909999161 -0.44721359549995804 0
vn 0 -0.44721359549995804 0.8944271909999161
vn 0 -0.44721359549995804 -0.8944271909999161
vn 0.7071067811865476 0 -0.7071067811865476
vn 0.7071067811865476 0 0.7071067811865476
vn -0.7071067811865476 0 -0.7071067811865476
vn -0.7071067811865476 0 0.7071067811865476
vn 0.6666666666666666 -0.3333333333333333 0.6666666666666666
vn -0.6666666666666666 -0.3333333333333333 0.6666666666666666
vn 0.6666666666666666 -0.3333333333333333 -0.6666666666666666
vn -0.6666666666666666 -0.3333333333333333 -0.6666666666666666
vn 0.6666666666666666 0.3333333333333333 0.6666666666666666
vn -0.6666666666666666 0.3333333333333333 0.6666666666666666
vn 0.6666666666666666 0.3333333333333333 -0.6666666666666666
vn -0.6666666666666666 0.3333333333333333 -0.6666666666666666
usemtl m_72e07a05-c5b8-b409-f643-99be75d85460
f 16/1/1 14/2/1 13/3/1 15/4/1
f 9/5/2 10/6/2 12/7/2 11/8/2
f 1/9/3 2/10/3 4/11/3 3/12/3
f 8/13/4 6/14/4 5/15/4 7/16/4
f 21/17/5 22/18/5 24/19/5 23/20/5
f 20/21/6 18/22/6 17/23/6 19/24/6
f 2/25/7 1/26/7 14/27/7 16/28/7
f 10/29/8 3/30/8 4/31/8 12/32/8
f 22/33/9 1/34/9 3/35/9 24/36/9
f 4/37/10 2/38/10 18/39/10 20/40/10
f 13/41/11 5/42/11 6/43/11 15/44/11
f 8/45/12 7/46/12 9/47/12 11/48/12
f 7/49/13 5/50/13 21/51/13 23/52/13
f 17/53/14 6/54/14 8/55/14 19/56/14
f 15/57/15 17/58/15 18/59/15 16/60/15
f 22/61/16 21/62/16 13/63/16 14/64/16
f 20/65/17 19/66/17 11/67/17 12/68/17
f 9/69/18 23/70/18 24/71/18 10/72/18
f 5/73/19 13/74/19 21/75/19
f 7/76/20 23/77/20 9/78/20
f 6/79/21 17/80/21 15/81/21
f 8/82/22 11/83/22 19/84/22
f 1/85/23 22/86/23 14/87/23
f 3/88/24 10/89/24 24/90/24
f 2/91/25 16/92/25 18/93/25
f 4/94/26 20/95/26 12/96/26